<svg xmlns="http://www.w3.org/2000/svg" id="Layer_1" version="1" viewBox="0 0 99 99"><style>.st1{fill:#bea423}.st2{fill:#b28509}</style><path fill="#5e4520" d="M66 32c4-3 3-8 3-12s-1-8-3-11c-2-2-1-4 2-5 8-2 17-1 26-3 1-1 2 1 2 2 0 6 0 12 2 17 0 2-1 2-3 2h-6v4c3 2 8-4 8 2 2 11 1 12-9 12l-1 3c3 1 8-2 9 1 2 4 3 9 1 13-1 5-7 2-10 3l3 17c1 8 2 11-7 13l-12 4c-6 1-7 0-9-7H37v1c1 12-6 11-19 10l-6-1c-8-1-5-6-4-10l6-21c-6 1-11 0-10-7 1-5-5-14 7-13l-1-4c-6 2-8-1-8-7 1-4 5-2 7-3l-1-5c-9 3-7-4-7-9v-7c1-5 5-6 9-6l14-1c2 0 3 2 3 4-2 9 2 16 6 25 1-2 6-12 33-1z"/><path d="M10 90c4-20 10-39 22-54 4-3 6-7 10-6l8 7 9 13c4 4 6 9 8 15s4 12 4 18v2l-5 2c-1-8-1-17-5-24l-3-2c-1-2-5-2-6 0v2l-1 6 1 9-1 1-1 1-1-15c-1-3-2-4-5-4-10 2-11 4-11 14v14h-1l-12 1h-9-1zM7 62L6 50c3-1 7 1 8-3 0-2 0-5-2-7l-1-1-5-1-1 1c-1-3 1-3 4-3s4-2 3-5c-1-2 0-5-2-7v-1c-1-1-4-2-6-1l-1 2 1-13c1-4 5-3 8-3l10-1v3 9c0 5 2 9 4 13l3 5a69 69 0 0 0-13 20l-2 2-2 1-3 1-2 1zM86 28c2 2 4 1 7 1v1l-1 5c-4 0-7 0-9 3l-1-1c-2-3-10-7-10-7 0-8 0-17-5-23 8-3 16-2 24-3v12c1 2 0 2-2 2-3 1-4 2-4 6v3l1 1z" class="st1"/><path d="M57 63c3 7 5 14 5 21l-25 2V67c1-3 6-2 9-4v14c0 3 0 6 5 6 5 1 6-2 6-6V63zM10 90c8-1 15-2 23-1 1 7-3 6-12 6-3 0-7-2-11-1v-4zM29 37c-4-2-4-6-5-9-3-7-3-14-2-21l2 1c-2 10 1 19 6 27l-1 2zM86 28v1l-1-2c-2-5-1-9 6-9 0-5-2-9 0-14h2l1 16c-8-2-8 3-8 8z" class="st2"/><path d="M51 79c1-6-1-12 1-18 1-2 3-2 5-2l2 1c-4-1-6 1-6 4v15h-2zM7 62v-1c4-1 7-1 10-4l-2 7c-3-2-5-1-8-1v-1z" class="st2"/><path d="M92 46v7h-2l-3-7h5z" class="st1"/><path d="M4 24v-2h7v1l-1 1-6 1v-1zM5 39v-1c3 0 5-1 7 2H6l-1-1zM86 58l1-1h8v-9l-2-2-1 6v1h-1l-1-1-1-4-1-1c-4-1-3-4-3-6 2-6 7-1 10-4v-7h-2l-1 4c-3 0-7 0-9 3-3-4-5-9-10-12l-1 3c-1 4-4 6-4 7 6 4 15 10 18 23z" class="st2"/><path d="M10 90z" class="st1"/><path d="M17 57zM42 30c26 1 44 20 44 56-14 4-16 4-20 4v-3l5-3s0-27-29-54z" class="st2"/></svg>
