<svg xmlns="http://www.w3.org/2000/svg" id="Layer_2" version="1" viewBox="0 0 99 99"><style>.st0{fill:#887263}</style><path d="M9 72c-5-5-9-14 23-41C61 7 83 2 94 13c10 10-5 36-32 56S16 102 2 93c-5-3 7-21 7-21z" class="st0"/><path fill="#b3aba0" d="M12 71C5 84 1 90 7 90c5 0 30-2 58-29s36-42 25-48-28-3-53 18C15 50 1 62 12 71z"/><path fill="#8d8378" d="M8 65c11 3 20 0 49-18s33-29 32-35c4 3 11 5 1 24S43 81 29 89 1 94 4 87c5 3 23 2 46-20-8 3-39 14-42-2z"/><path d="M10 74c2 2 19 4 38-9-10 4-27 12-37 5l-1 4zM18 52c0 4-5 12 31-13s25-24 21-23c8-4 17 0-20 25S12 60 18 52z" class="st0"/></svg>
