<svg xmlns="http://www.w3.org/2000/svg" id="Layer_1" version="1" viewBox="0 0 99 99"><style>.st0{fill:#746978}.st1{fill:#baaed0}.st2{fill:#8f849c}</style><path d="M3 83c0-16 0-32 4-48 4-14 11-25 26-29 8-2 15 3 23 7 10 5 20 12 29 21l3 1c2-2 3 0 5 1 4 3 6 12 2 17-15 17-34 29-56 34-9 2-17 8-26 9-4 1-9 1-10-6 0-2-2-5 0-7z" class="st0"/><path d="M25 25l-3-10c2-3 6-5 10-6l1 1c15 8 23 21 31 35L42 58l-9-21h-1l1 2c-2 1-1 2-1 3l7 18-10 7c-7 4-14 6-22 9 0-20-1-40 11-57l2-3v1c2 5 3 10 8 14l-2-4 1-1-2-1zm-4 0l-1 1c-1 1-1 2 1 3l1 1c2-1 1-2 1-3s0-2-2-2zm6 19l1 2 2-2c0-1 1-2-1-2l-2-2-1 3 1 1z" class="st1"/><path d="M45 63c9-5 19-10 27-16l13-9c6 0 6 5 9 8-8 10-16 19-28 25l-18 9c0-1 2-14-3-17zm19-4c-1-1-2 0-2 2 0 1 0 2 2 2 1 0 3 0 3-2s-1-2-3-2zm20-16c0 2 0 4 2 4l2-1-3-4-1 1z" class="st2"/><path d="M46 63c5 3 5 9 5 14v2L15 91l-8 2V79c13-4 26-10 39-16zM12 85c-1 0-1-2-3-1v4c-1 1 0 2 1 2 1 1 2 1 3-1v-4h-1zm15-7v3c1 2 2 2 4 2 2-1 2-3 2-5 0-1 0-2-2-2-2-1-4 0-4 2z" class="st1"/><path d="M42 58l22-13c-8-14-16-27-31-35l-1-1 1-1c20 5 34 16 49 28L43 60l-1-2zM29 67l10-7-7-18c0-1-1-2 1-3l8 22-12 6zM25 25l2 2h-1l2 4c-5-4-7-9-9-13l1-2a312 312 0 0 1 5 8z" class="st2"/><path d="M27 44l-1-1 1-3 2 2 1 2h-3zM21 29c-2-1-2-2-1-3l1-1 1 2c1 1 0 2-1 2z" class="st0"/><path d="M37 58c0 2-2 2-4 2l1-2h3zM21 29l1-2-1-2c2 0 2 1 2 2s1 2-1 3l-1-1zM27 44h3l-1-2c2 0 1 1 1 2 0 2-1 2-2 2l-1-2z" class="st2"/><path d="M64 59c2 0 3 0 3 2s-2 2-3 2c-2 0-2-1-2-2 0-2 1-3 2-2zM84 43h1l3 3-2 1c-2 0-2-2-2-4z" class="st0"/><path d="M31 76c2 0 2 1 2 3 0 1 0 3-2 4l-4-1v-3 1h5c1-2 0-3-1-4z" class="st2"/><path d="M31 76c1 1 2 2 1 3-1 2-3 1-4 1l-1-2c0-2 2-3 4-2z" class="st0"/><path d="M12 85h1v4c-1 1-2 2-3 1s-2-1-1-3c1 1 2 2 3 1v-3z" class="st2"/><path d="M12 85v3H9c-1-2 0-3 1-4s1 1 2 1zM34 60c-2-1-2-2-1-3 0-1 1-2 3-1v3l-2 1z" class="st0"/></svg>
